<?xml version="1.0" standalone="no"?>
<!DOCTYPE svg PUBLIC "-//W3C//DTD SVG 20010904//EN"
 "http://www.w3.org/TR/2001/REC-SVG-20010904/DTD/svg10.dtd">
<svg version="1.0" xmlns="http://www.w3.org/2000/svg"
 width="1024.000000pt" height="1024.000000pt" viewBox="0 0 1024.000000 1024.000000"
 preserveAspectRatio="xMidYMid meet">

<g transform="translate(0.000000,1024.000000) scale(0.100000,-0.100000)"
fill="#000000" stroke="none">
<path d="M5009 7571 c-134 -89 -344 -322 -494 -548 -26 -40 -49 -73 -50 -73
-2 0 -52 33 -113 74 -179 119 -491 266 -565 266 -54 0 -85 -46 -153 -221 -143
-371 -229 -936 -195 -1279 65 -640 392 -1121 934 -1375 408 -191 861 -220
1272 -83 287 96 516 237 706 436 277 288 428 665 454 1132 17 299 -56 742
-181 1100 -86 248 -111 290 -173 290 -74 0 -383 -145 -566 -266 -49 -32 -95
-62 -101 -66 -7 -5 -22 9 -39 35 -138 211 -375 478 -508 572 -100 70 -131 71
-228 6z m178 -215 c62 -47 138 -128 242 -261 79 -99 183 -253 179 -264 -2 -4
-43 -42 -93 -83 -112 -92 -243 -232 -337 -359 l-72 -97 -60 82 c-116 159 -225
279 -348 383 -71 59 -77 67 -67 86 30 57 230 325 297 398 82 88 165 159 187
159 7 0 40 -20 72 -44z m-1198 -351 c176 -82 237 -117 364 -213 174 -131 383
-345 601 -615 l39 -48 -75 -152 c-135 -273 -216 -522 -254 -782 -22 -144 -25
-490 -6 -604 7 -40 11 -75 9 -77 -5 -6 -161 53 -237 89 -158 75 -354 223 -452
340 -341 410 -433 1038 -253 1737 37 141 113 390 119 390 3 0 68 -29 145 -65z
m2415 18 c155 -403 200 -625 200 -998 1 -457 -85 -744 -308 -1029 -215 -274
-574 -478 -956 -543 -103 -17 -336 -23 -412 -10 -41 7 -48 12 -57 40 -38 117
-47 491 -17 682 43 272 145 575 263 774 64 109 246 360 329 455 214 245 505
468 789 607 77 38 142 69 145 69 3 0 14 -21 24 -47z"/>
<path d="M3076 4570 c-25 -5 -49 -18 -64 -36 -24 -27 -24 -33 -19 -129 23
-435 285 -951 645 -1272 245 -218 508 -361 831 -453 403 -113 910 -113 1304 0
368 106 657 278 912 541 123 127 173 189 265 329 172 262 300 644 300 895 0
59 -3 70 -28 94 -35 35 -113 45 -280 36 -485 -26 -833 -149 -1162 -412 -252
-201 -479 -555 -604 -941 -20 -62 -39 -133 -43 -157 -7 -54 -18 -51 -27 7 -8
55 -60 221 -98 317 -85 215 -224 445 -368 609 -247 282 -625 482 -1042 551
-144 24 -444 36 -522 21z m373 -200 c123 -11 349 -62 471 -105 328 -118 638
-394 800 -715 47 -93 136 -312 168 -411 44 -139 77 -349 54 -349 -33 0 -251
32 -307 44 -98 23 -304 92 -405 136 -250 109 -489 302 -689 554 -177 223 -291
485 -335 769 l-13 87 71 0 c39 0 122 -5 185 -10z m3596 -32 c-27 -169 -71
-313 -154 -498 -128 -288 -408 -597 -706 -780 -193 -119 -522 -227 -780 -256
-33 -4 -62 -10 -65 -14 -10 -14 -60 -21 -60 -8 0 38 33 206 55 283 37 125 120
345 166 437 71 141 210 336 302 425 201 193 335 270 647 371 169 56 308 77
518 81 l84 1 -7 -42z"/>
</g>
</svg>
